<svg xmlns="http://www.w3.org/2000/svg" viewBox="0 0 1600 900">
  <defs>
    <pattern id="grid" width="50" height="50" patternUnits="userSpaceOnUse">
      <path d="M50 0H0V50" fill="none" stroke="#17201f" stroke-opacity=".09"/>
    </pattern>
    <linearGradient id="bg" x1="0" y1="0" x2="1" y2="1">
      <stop stop-color="#f7efdf"/><stop offset="1" stop-color="#e7d9c1"/>
    </linearGradient>
    <linearGradient id="line" x1="0" x2="1">
      <stop stop-color="#0b7261"/><stop offset=".5" stop-color="#f0442d"/><stop offset="1" stop-color="#d5e33f"/>
    </linearGradient>
    <filter id="shadow"><feDropShadow dx="0" dy="24" stdDeviation="25" flood-opacity=".18"/></filter>
  </defs>
  <rect width="1600" height="900" fill="url(#bg)"/><rect width="1600" height="900" fill="url(#grid)"/>
  <circle cx="800" cy="450" r="122" fill="#17201f" filter="url(#shadow)"/>
  <circle cx="800" cy="450" r="89" fill="#f0442d"/><text x="800" y="472" text-anchor="middle" font-family="Arial,sans-serif" font-size="64" font-weight="800" fill="#f7efdf">DA</text>
  <g fill="none" stroke="url(#line)" stroke-width="8" stroke-linecap="round">
    <path d="M290 260C500 260 560 400 680 430"/><path d="M290 640C500 640 560 500 680 470"/>
    <path d="M920 430C1070 400 1110 220 1320 220"/><path d="M920 450H1320"/><path d="M920 470C1070 500 1110 680 1320 680"/>
  </g>
  <g font-family="Arial,sans-serif" filter="url(#shadow)">
    <rect x="130" y="185" width="260" height="145" rx="28" fill="#0b7261"/><text x="165" y="235" fill="#d5e33f" font-size="18" font-weight="700">STRUCTURED DATA</text><text x="165" y="282" fill="#fff" font-size="32" font-weight="700">Tables + DBs</text>
    <rect x="130" y="565" width="260" height="145" rx="28" fill="#17201f"/><text x="165" y="615" fill="#d5e33f" font-size="18" font-weight="700">KNOWLEDGE</text><text x="165" y="662" fill="#fff" font-size="32" font-weight="700">Docs + SOPs</text>
    <rect x="1210" y="145" width="260" height="145" rx="28" fill="#f0442d"/><text x="1245" y="195" fill="#17201f" font-size="18" font-weight="700">ARTIFACT 01</text><text x="1245" y="242" fill="#fff" font-size="32" font-weight="700">Dashboard</text>
    <rect x="1210" y="378" width="260" height="145" rx="28" fill="#d5e33f"/><text x="1245" y="428" fill="#17201f" font-size="18" font-weight="700">ARTIFACT 02</text><text x="1245" y="475" fill="#17201f" font-size="32" font-weight="700">Report</text>
    <rect x="1210" y="610" width="260" height="145" rx="28" fill="#0b7261"/><text x="1245" y="660" fill="#d5e33f" font-size="18" font-weight="700">ARTIFACT 03</text><text x="1245" y="707" fill="#fff" font-size="32" font-weight="700">Data Story</text>
  </g>
  <text x="800" y="815" text-anchor="middle" font-family="Arial,sans-serif" font-size="22" font-weight="700" letter-spacing="6" fill="#17201f">COMPILE · VALIDATE · STEER · DELIVER</text>
</svg>
